<?xml version="1.0" encoding="UTF-8"?>
<svg width="549px" height="508px" viewBox="0 0 549 508" version="1.1" xmlns="http://www.w3.org/2000/svg" xmlns:xlink="http://www.w3.org/1999/xlink">
    <defs>
        <filter x="-16.3%" y="-16.3%" width="132.5%" height="132.5%" filterUnits="objectBoundingBox" id="filter-1">
            <feGaussianBlur stdDeviation="20" in="SourceGraphic"></feGaussianBlur>
        </filter>
    </defs>
    <g id="A4" stroke="none" stroke-width="1" fill="none" fill-rule="evenodd">
        <g id="Earth" transform="translate(93.000000, 69.000000)">
            <circle id="Earth-glow" fill="#456C86" filter="url(#filter-1)" cx="184.5" cy="184.5" r="184.5"></circle>
            <circle fill="#1973B1" cx="185" cy="184" r="168"></circle>
        </g>
        <path d="M397.987631,289 C406.824187,289 413.987631,296.163444 413.987631,305 C413.987631,313.836556 406.824187,321 397.987631,321 L386.953411,321 L386.953411,339.999 L397.497526,340 C404.964464,340 411.651216,343.340371 416.144969,348.608301 C405.329264,364.195675 391.93812,377.863875 376.588192,389.003082 L302.319411,389 C288.788434,389 277.819411,378.030976 277.819411,364.5 C277.819411,350.969024 288.788434,340 302.319411,340 L323.875411,339.999 L323.875411,321 L311.841675,321 C303.005119,321 295.841675,313.836556 295.841675,305 C295.841675,296.163444 303.005119,289 311.841675,289 L397.987631,289 Z M160.204378,321 C173.735354,321 184.704378,331.969024 184.704378,345.5 C184.704378,359.030976 173.735354,370 160.204378,370 L157.109208,370.00028 C143.353777,355.846371 132.071999,339.281079 123.960516,321.000185 L160.204378,321 Z M210.761276,161 C221.806971,161 230.761276,169.954305 230.761276,181 C230.761276,191.378214 222.856473,199.910163 212.739292,200.90342 L212.738951,217.999 L214.766224,218 C225.811919,218 234.766224,226.954305 234.766224,238 C234.766224,249.045695 225.811919,258 214.766224,258 L155.643769,258 C144.598074,258 135.643769,249.045695 135.643769,238 C135.643769,226.954305 144.598074,218 155.643769,218 L158.671951,217.999 L158.671951,201 L122.602951,201 C121.019362,201 119.47876,200.815952 118.001368,200.46808 C122.632397,186.397209 129.075755,173.149539 137.054088,160.997428 L210.761276,161 Z M404,172 C415.045695,172 424,180.954305 424,192 C424,203.045695 415.045695,212 404,212 L315.841675,212 C304.79598,212 295.841675,203.045695 295.841675,192 C295.841675,180.954305 304.79598,172 315.841675,172 L404,172 Z M261.819411,100 C270.655967,100 277.819411,107.163444 277.819411,116 C277.819411,124.836556 270.655967,132 261.819411,132 L165.661086,132 C164.280148,132 162.940071,131.825054 161.661809,131.496116 C175.224716,118.55154 190.95508,107.853878 208.2523,99.9961278 L261.819411,100 Z" id="Islands" fill="#6FC850"></path>
        <g id="Clouds" transform="translate(74.000000, 73.000000)" fill="#FFFFFF">
            <path d="M349.655881,22.9166667 C355.434508,27.1304931 356.728479,35.2661393 352.546046,41.088141 C351.742162,42.2071581 350.766561,43.190082 349.655881,44 L234.005434,44 C221.879237,40.9340735 214.534437,28.6184245 217.600363,16.4922279 C219.471032,9.09345629 224.942226,3.13437914 232.154685,0.640054521 L234.005434,0 L234.005434,0 L313.949354,0 C318.940442,0.351416563 322.458341,3.21006686 323.762015,4.76096756 C325.858961,7.25557616 326.54185,9.19541894 326.54185,13.1015389 C326.54185,18.7329359 326.54185,28.1675937 326.54185,22.9166667 L316.80064,22.9166667 L349.655881,22.9166667 Z" id="Cloud1"></path>
            <path d="M98.5,53 C101.126107,53.8234068 102.866228,56.4895724 103.720363,60.9984968 L105.5,61 C110.19442,61 114,64.8055796 114,69.5 C114,74.1944204 110.19442,78 105.5,78 L69.5,78 C64.8055796,78 61,74.1944204 61,69.5 C61,64.8055796 64.8055796,61 69.5,61 L70.9577749,60.9994276 C70.8353385,55.6664759 72.5160802,53 76,53 C84.2355447,51.6760553 94.277518,51.6760553 98.5,53 Z" id="Cloud2"></path>
            <path d="M157.967956,110.772301 C160.992241,111.430099 162.315224,115.505958 161.936905,122.999878 L166.5,123 C170.089851,123 173,125.910149 173,129.5 C173,133.089851 170.089851,136 166.5,136 L120.5,136 C116.910149,136 114,133.089851 114,129.5 C114,125.910149 116.910149,123 120.5,123 L125.009234,122.999889 C125.162789,114.848164 127.231367,110.772301 131.214969,110.772301 C140.448762,109.742566 153.233658,109.742566 157.967956,110.772301 Z" id="Cloud3"></path>
            <rect id="Cloud4" x="260" y="132" width="128" height="34" rx="17"></rect>
            <path d="M365.519249,237.76526 C372.806353,239.305999 375.892691,249.050844 374.778264,266.999794 L388,267 C395.179702,267 401,272.820298 401,280 L401,285 C401,292.179702 395.179702,298 388,298 L323.579342,298.003342 C340.449103,280.909692 353.680714,260.216743 362.018268,237.180404 C363.327224,237.354843 364.502235,237.550229 365.519249,237.76526 Z" id="Cloud5"></path>
            <path d="M219,252.999 L216,253 C212.134007,253 209,249.865993 209,246 C209,242.134007 212.134007,239 216,239 L251,239 C254.865993,239 258,242.134007 258,246 C258,249.865993 254.865993,253 251,253 L250,252.999 L250,261 L256,261 C259.865993,261 263,264.134007 263,268 C263,271.865993 259.865993,275 256,275 L211,275 C207.134007,275 204,271.865993 204,268 C204,264.134007 207.134007,261 211,261 L219,261 L219,252.999 Z" id="Cloud7"></path>
            <path d="M118.5,208 C125.403559,208 131,213.596441 131,220.5 C131,224.90328 128.723234,228.774792 125.282711,231.00153 L151.5,231 C158.403559,231 164,236.596441 164,243.5 C164,250.403559 158.403559,256 151.5,256 L45.5,256 C38.5964406,256 33,250.403559 33,243.5 C33,239.097575 35.2758814,235.226711 38.7152847,232.999768 L12.5,233 C5.59644063,233 8.45442189e-16,227.403559 0,220.5 C-8.45442189e-16,213.596441 5.59644063,208 12.5,208 L118.5,208 Z" id="Cloud8"></path>
        </g>
    </g>
</svg>